PathFileType	4	(X/Y/Z)	Patient4_TMGait_0pt3_02_left_13.trc.trc
DataRate	CameraRate	NumFrames	NumMarkers	Units	OrigDataRate	OrigDataStartFrame	OrigNumFrames
55.118110236220	55.118110236220	4	33	mm	55.118110236220	18	       141
Frame#	Time	Sacral			L.Shoulder			Chest			R.Shoulder			Neck			R.ASIS			L.ASIS			R.Thigh.Superior			R.Thigh.Lateral			R.Thigh.Inferior			R.Patella			L.Thigh.Superior			L.Thigh.Lateral			L.Thigh.Inferior			L.Patella			L.Shank.Superior			L.Shank.Lateral			L.Shank.Inferior			R.Shank.Superior			R.Shank.Lateral			R.Shank.Inferior			R.Heel			R.Midfoot.Superior			R.Midfoot.Lateral			R.Toe			L.Heel			L.Midfoot.Lateral			L.Midfoot.Superior			L.Toe			L.Elbow			L.Wrist			R.Elbow			R.Wrist			
		X1	Y1	Z1	X2	Y2	Z2	X3	Y3	Z3	X4	Y4	Z4	X5	Y5	Z5	X6	Y6	Z6	X7	Y7	Z7	X8	Y8	Z8	X9	Y9	Z9	X10	Y10	Z10	X11	Y11	Z11	X12	Y12	Z12	X13	Y13	Z13	X14	Y14	Z14	X15	Y15	Z15	X16	Y16	Z16	X17	Y17	Z17	X18	Y18	Z18	X19	Y19	Z19	X20	Y20	Z20	X21	Y21	Z21	X22	Y22	Z22	X23	Y23	Z23	X24	Y24	Z24	X25	Y25	Z25	X26	Y26	Z26	X27	Y27	Z27	X28	Y28	Z28	X29	Y29	Z29	X30	Y30	Z30	X31	Y31	Z31	X32	Y32	Z32	X33	Y33	Z33	

18	25.598428571429	674.823355177167	1011.705389491228	581.313027184106	856.225990949089	1418.190644576409	364.617347747929	976.786700248581	1347.433944910927	511.831467389049	928.156032521572	1437.311850410127	691.126318546105	873.865091140356	1487.744863874496	518.001082244684	911.861172121258	929.638675538488	664.664991338630	865.425564328974	959.795445722723	395.318366768384	931.040073788699	723.999086335530	622.416270614965	847.420379410701	615.982859638994	682.797529917249	912.184280884444	563.307146305238	592.644032634480	905.883856680131	470.659386813473	595.867724125726	943.202109846587	775.941974143353	427.186820716738	897.103552011673	651.600810063838	346.302102018259	993.614421051139	588.017371704380	414.058910606640	1019.225125161195	520.684002290176	407.420249599886	995.434726810116	449.332980677258	392.370549572702	920.541340525879	329.268329891467	329.778158789916	994.032488694313	218.884785285203	384.128928538733	857.688643871296	387.533820563624	602.302053920238	771.018162109313	295.877819455058	663.150849475188	790.643691980801	198.250028136312	595.472256026431	630.525406942372	47.336663622583	562.583407050698	801.956695651752	96.315860874078	604.881998724918	710.644382263755	38.496002165178	639.859484657861	918.747428938378	39.159529821809	638.998008354894	890.799341241739	45.318681867715	408.363527998319	970.640652224724	46.710816687984	334.111946943268	1045.781046442425	118.786484541707	361.589444989082	1178.486426873100	81.057598491835	343.757068238285	716.096165191392	1084.172498088086	291.818714539538	701.260628837719	825.054131581656	306.376656060107	1045.955172412222	1134.897686797026	835.993729737263	1277.350573270644	1207.106736100693	769.759352095962	
19	25.616571428571	674.742252372557	1012.309285294093	580.779899694650	854.360848320575	1418.668565232380	362.972669628889	976.168873611460	1347.732540131394	509.074570401137	929.247741364615	1437.752907443731	688.592288587309	873.266365063394	1488.079668410302	516.177064094812	911.999021442174	929.787421909331	662.880255899749	864.281624666538	959.826945420244	393.722484669611	928.419383661620	723.492097050350	621.184269528247	843.833674288739	616.417291556225	682.420319945283	907.562353012722	562.862637871358	592.316371280592	900.156620379665	470.595416710677	595.894460560807	940.076660670947	773.797319399721	423.918358116749	890.959244902416	650.173010523932	343.459892082177	987.483770430352	585.600749484711	410.206658959223	1012.893649126736	520.288016824184	404.472742233962	991.872763815818	449.606249614406	389.884128978410	922.458939928431	326.099753898325	327.056950777946	1000.328263716517	218.998944052318	382.318349329524	852.163153925112	387.670000640215	602.376161781124	765.391092925492	296.076481616811	663.173003023463	785.123090629525	198.397982215726	595.572027235767	625.028870615302	47.412762416566	562.607193268141	796.497934798214	96.301845121866	604.885438889789	705.124119024320	38.530102449294	639.845910152617	913.218855611146	39.110251443163	638.988684074014	903.366426859366	42.824231821439	406.488218498644	984.141816097972	44.934031747241	333.196345273365	1057.167923949559	119.110520631963	360.773839540395	1191.051379607469	84.176584988889	345.231385632154	710.429561017789	1086.362807688619	291.984375761099	695.007902303042	827.138033265387	307.125550920986	1057.138021190933	1139.030243638485	829.270606284610	1281.917890651518	1223.015010706559	755.481682997117	
20	25.634714285714	674.761731119320	1012.273092786597	579.872875078663	852.690553412013	1418.557393900207	360.956361578739	975.563008019686	1347.565025028851	506.155993152901	930.003493877420	1437.713583867649	685.794712388723	872.623127830029	1487.914847382227	514.007195189432	912.277929793525	929.576556418478	661.077248097824	863.460351193261	959.217499910352	392.063033435754	926.352671228923	722.758079948305	619.859756107040	840.919135582775	616.482286158256	681.832482178337	903.722825299028	562.154747171287	591.811565342140	895.255901699740	470.153910892927	595.691358386859	937.534187400026	771.127180371465	420.529082637906	885.218766710591	648.113507261292	340.870533040764	981.960911443677	582.792108789501	406.544487982078	1006.962685649518	519.132880636276	401.736262179217	988.173517252011	449.063833376555	387.541858110103	923.034760425285	323.023834827333	324.901133288400	1004.417750839379	218.742382208430	380.724169858614	847.298127898071	387.455120798678	602.244328443276	760.247714543356	296.088765485724	663.042650471805	779.868551687401	198.329895623593	595.562758864784	619.526290770705	47.433377995642	562.604404870844	791.027104726325	96.244439397268	604.802847786261	699.603100844178	38.530999977954	639.823342654205	907.693154538043	39.071517305442	638.975042244204	912.472258167896	41.075712093190	405.269283037109	993.669515722892	43.633284756871	332.431484335256	1065.246031701620	119.088486204526	359.918590139148	1199.774032537173	85.996485046905	345.633750041623	705.818597087133	1087.596549409092	291.684426315045	690.416566893727	828.198014008461	307.373291555658	1067.447595413889	1142.727576504901	822.240785247996	1285.483127464415	1236.908924946306	741.651254761090	
21	25.652857142857	674.885418560972	1011.654018674920	578.628337607112	851.201346408803	1417.885338751344	358.542997365360	974.985109323177	1346.964756031857	503.034588807364	930.472893242167	1437.241568109532	682.710653961945	871.948967814068	1487.288571571696	511.457737471749	912.704908026457	929.030807825870	659.236931348997	862.932003744265	958.037791596207	390.326146198748	924.846743825491	721.798667555421	618.430556502758	838.666054091765	616.184832407500	681.015329107611	900.647842071101	561.184851576727	591.101032202643	891.162426432961	469.341377756075	595.223321089456	935.623370757102	768.123871774084	417.111066023839	880.081376791778	645.573894118097	338.604865678308	977.236037362910	579.811748532976	403.179838116279	1001.649894824665	517.387277732347	399.279185611693	984.578024883558	447.788497157357	385.401574244423	922.454346611171	320.014881910317	323.314081686416	1006.497253919969	217.985050094274	379.394051156698	843.062707727611	386.897981949639	601.883952833682	755.578380574521	295.922244395727	662.758427682512	774.868224762501	198.054488962694	595.439295834296	614.019429304517	47.396107803551	562.584477517302	785.543708318961	96.142403366267	604.633522161340	694.084988243484	38.497837041959	639.798412588738	902.174944914687	39.048011151817	638.959255740390	918.212359644273	39.820525906768	404.697347804722	999.347355975770	42.580233738134	331.808448569288	1070.183082100736	118.529092711297	359.072177048970	1204.903712137665	86.305452056755	345.007657285920	702.249866553277	1087.871611104700	290.868388370676	687.473265620171	828.245375898460	307.092838364046	1076.786754823648	1145.952843181505	815.028631329781	1288.196220119954	1248.783019706096	728.340806049532	
